<mxfile host="65bd71144e" modified="2021-02-05T01:26:07.524Z" agent="5.0 (Windows NT 10.0; Win64; x64) AppleWebKit/537.36 (KHTML, like Gecko) Code/1.53.0 Chrome/87.0.4280.141 Electron/11.2.1 Safari/537.36" version="13.10.0" etag="TlOYWWQnC3EVAv6Xxy1B" type="embed">
    <diagram id="j25wV6DL6mBUIM5yI2qN" name="Page-1">
        <mxGraphModel dx="2001" dy="790" grid="1" gridSize="10" guides="1" tooltips="1" connect="1" arrows="1" fold="1" page="1" pageScale="1" pageWidth="850" pageHeight="1400" math="0" shadow="0">
            <root>
                <mxCell id="0"/>
                <mxCell id="1" parent="0"/>
                <mxCell id="2" value="&lt;span style=&quot;font-size: 14px&quot;&gt;&lt;font color=&quot;#ff8000&quot;&gt;&lt;b&gt;Problem Domain:&lt;/b&gt;&lt;br&gt;Write breadth first traversal method that takes in a BT&lt;br&gt;and returns values in the order they were encountered&lt;br&gt;&lt;/font&gt;&lt;br&gt;&lt;/span&gt;" style="text;html=1;align=left;verticalAlign=middle;resizable=0;points=[];autosize=1;" vertex="1" parent="1">
                    <mxGeometry x="-840" y="20" width="350" height="70" as="geometry"/>
                </mxCell>
                <mxCell id="3" value="&lt;b&gt;&lt;font color=&quot;#ff8000&quot; style=&quot;font-size: 14px&quot;&gt;Visual:&lt;/font&gt;&lt;/b&gt;" style="text;html=1;align=left;verticalAlign=middle;resizable=0;points=[];autosize=1;" vertex="1" parent="1">
                    <mxGeometry x="-840" y="90" width="60" height="20" as="geometry"/>
                </mxCell>
                <mxCell id="4" value="&lt;font color=&quot;#ff8000&quot; size=&quot;1&quot;&gt;&lt;b style=&quot;font-size: 14px&quot;&gt;2&lt;/b&gt;&lt;/font&gt;" style="rhombus;whiteSpace=wrap;html=1;" vertex="1" parent="1">
                    <mxGeometry x="-720" y="110" width="40" height="40" as="geometry"/>
                </mxCell>
                <mxCell id="5" value="&lt;font color=&quot;#ff8000&quot; size=&quot;1&quot;&gt;&lt;b style=&quot;font-size: 14px&quot;&gt;7&lt;/b&gt;&lt;/font&gt;" style="rhombus;whiteSpace=wrap;html=1;" vertex="1" parent="1">
                    <mxGeometry x="-780" y="180" width="40" height="40" as="geometry"/>
                </mxCell>
                <mxCell id="6" value="&lt;font color=&quot;#ff8000&quot; size=&quot;1&quot;&gt;&lt;b style=&quot;font-size: 14px&quot;&gt;4&lt;/b&gt;&lt;/font&gt;" style="rhombus;whiteSpace=wrap;html=1;" vertex="1" parent="1">
                    <mxGeometry x="-645" y="180" width="40" height="40" as="geometry"/>
                </mxCell>
                <mxCell id="7" value="&lt;font color=&quot;#ff8000&quot; size=&quot;1&quot;&gt;&lt;b style=&quot;font-size: 14px&quot;&gt;9&lt;/b&gt;&lt;/font&gt;" style="rhombus;whiteSpace=wrap;html=1;" vertex="1" parent="1">
                    <mxGeometry x="-820" y="240" width="40" height="40" as="geometry"/>
                </mxCell>
                <mxCell id="8" value="&lt;font color=&quot;#ff8000&quot; size=&quot;1&quot;&gt;&lt;b style=&quot;font-size: 14px&quot;&gt;11&lt;/b&gt;&lt;/font&gt;" style="rhombus;whiteSpace=wrap;html=1;" vertex="1" parent="1">
                    <mxGeometry x="-740" y="240" width="40" height="40" as="geometry"/>
                </mxCell>
                <mxCell id="9" value="&lt;b&gt;&lt;font style=&quot;font-size: 14px&quot; color=&quot;#ff8000&quot;&gt;18&lt;/font&gt;&lt;/b&gt;" style="rhombus;whiteSpace=wrap;html=1;" vertex="1" parent="1">
                    <mxGeometry x="-685" y="240" width="40" height="40" as="geometry"/>
                </mxCell>
                <mxCell id="10" value="&lt;font color=&quot;#ff8000&quot; size=&quot;1&quot;&gt;&lt;b style=&quot;font-size: 14px&quot;&gt;5&lt;/b&gt;&lt;/font&gt;" style="rhombus;whiteSpace=wrap;html=1;" vertex="1" parent="1">
                    <mxGeometry x="-610" y="240" width="40" height="40" as="geometry"/>
                </mxCell>
                <mxCell id="11" value="&lt;font color=&quot;#ff8000&quot; size=&quot;1&quot;&gt;&lt;b style=&quot;font-size: 14px&quot;&gt;5&lt;/b&gt;&lt;/font&gt;" style="rhombus;whiteSpace=wrap;html=1;" vertex="1" parent="1">
                    <mxGeometry x="-645" y="300" width="40" height="40" as="geometry"/>
                </mxCell>
                <mxCell id="12" value="" style="endArrow=none;html=1;strokeColor=#FF8000;entryX=0;entryY=1;entryDx=0;entryDy=0;exitX=1;exitY=0;exitDx=0;exitDy=0;" edge="1" parent="1" source="5" target="4">
                    <mxGeometry width="50" height="50" relative="1" as="geometry">
                        <mxPoint x="-750" y="190" as="sourcePoint"/>
                        <mxPoint x="-700" y="140" as="targetPoint"/>
                    </mxGeometry>
                </mxCell>
                <mxCell id="13" value="" style="endArrow=none;html=1;strokeColor=#FF8000;entryX=0;entryY=1;entryDx=0;entryDy=0;exitX=1;exitY=0;exitDx=0;exitDy=0;" edge="1" parent="1" source="7">
                    <mxGeometry width="50" height="50" relative="1" as="geometry">
                        <mxPoint x="-800" y="270" as="sourcePoint"/>
                        <mxPoint x="-760" y="220" as="targetPoint"/>
                    </mxGeometry>
                </mxCell>
                <mxCell id="14" value="" style="endArrow=none;html=1;strokeColor=#FF8000;exitX=0.5;exitY=1;exitDx=0;exitDy=0;" edge="1" parent="1" source="5" target="8">
                    <mxGeometry width="50" height="50" relative="1" as="geometry">
                        <mxPoint x="-760" y="230" as="sourcePoint"/>
                        <mxPoint x="-750" y="230" as="targetPoint"/>
                    </mxGeometry>
                </mxCell>
                <mxCell id="17" value="" style="endArrow=none;html=1;strokeColor=#FF8000;entryX=0;entryY=0;entryDx=0;entryDy=0;" edge="1" parent="1" source="4" target="6">
                    <mxGeometry width="50" height="50" relative="1" as="geometry">
                        <mxPoint x="-690" y="140" as="sourcePoint"/>
                        <mxPoint x="-640" y="90" as="targetPoint"/>
                    </mxGeometry>
                </mxCell>
                <mxCell id="18" value="" style="endArrow=none;html=1;strokeColor=#FF8000;exitX=1;exitY=0;exitDx=0;exitDy=0;entryX=0.5;entryY=1;entryDx=0;entryDy=0;" edge="1" parent="1" source="9" target="6">
                    <mxGeometry width="50" height="50" relative="1" as="geometry">
                        <mxPoint x="-670" y="270" as="sourcePoint"/>
                        <mxPoint x="-620" y="220" as="targetPoint"/>
                    </mxGeometry>
                </mxCell>
                <mxCell id="19" value="" style="endArrow=none;html=1;strokeColor=#FF8000;exitX=0.5;exitY=1;exitDx=0;exitDy=0;entryX=0;entryY=0;entryDx=0;entryDy=0;" edge="1" parent="1" source="6" target="10">
                    <mxGeometry width="50" height="50" relative="1" as="geometry">
                        <mxPoint x="-605" y="225" as="sourcePoint"/>
                        <mxPoint x="-555" y="175" as="targetPoint"/>
                    </mxGeometry>
                </mxCell>
                <mxCell id="20" value="" style="endArrow=none;html=1;strokeColor=#FF8000;exitX=0;exitY=0;exitDx=0;exitDy=0;entryX=0.5;entryY=1;entryDx=0;entryDy=0;" edge="1" parent="1" source="11" target="9">
                    <mxGeometry width="50" height="50" relative="1" as="geometry">
                        <mxPoint x="-695" y="320" as="sourcePoint"/>
                        <mxPoint x="-645" y="270" as="targetPoint"/>
                    </mxGeometry>
                </mxCell>
                <mxCell id="22" value="&lt;font style=&quot;font-size: 14px&quot; color=&quot;#ff8000&quot;&gt;&lt;b&gt;Output:&lt;/b&gt;&lt;br&gt;2, 7, 4, 9, 11, 18, 5, 5&lt;br&gt;&lt;/font&gt;" style="text;html=1;align=left;verticalAlign=middle;resizable=0;points=[];autosize=1;" vertex="1" parent="1">
                    <mxGeometry x="-840" y="320" width="150" height="40" as="geometry"/>
                </mxCell>
                <mxCell id="23" value="&lt;font style=&quot;font-size: 14px&quot; color=&quot;#ff8000&quot;&gt;&lt;b&gt;Algorithm:&lt;/b&gt;&lt;br&gt;- Treverse through the tree&lt;br&gt;- Append root to a queue or list&lt;br&gt;- While queue has values&lt;br&gt;- dequeue from queue&lt;br&gt;- enque left and right&lt;br&gt;&lt;/font&gt;" style="text;html=1;align=left;verticalAlign=middle;resizable=0;points=[];autosize=1;" vertex="1" parent="1">
                    <mxGeometry x="-840" y="380" width="210" height="100" as="geometry"/>
                </mxCell>
                <mxCell id="24" value="&lt;font style=&quot;font-size: 14px&quot; color=&quot;#ff8000&quot;&gt;&lt;b&gt;Pseudo code:&lt;/b&gt;&lt;br&gt;&lt;br&gt;def breadth_first(self):&lt;br&gt;&lt;br&gt;&amp;nbsp; &amp;nbsp; output = [ ]&lt;br&gt;&amp;nbsp; &amp;nbsp; queue = [ ]&lt;br&gt;&lt;br&gt;&amp;nbsp; &amp;nbsp; queue.append(self.root)&lt;br&gt;&lt;br&gt;&amp;nbsp; &amp;nbsp; while queue:&lt;br&gt;&amp;nbsp; &amp;nbsp; &amp;nbsp; &amp;nbsp; node = queue.pop(0)&lt;br&gt;&amp;nbsp; &amp;nbsp; &amp;nbsp; &amp;nbsp; if node.left:&lt;br&gt;&amp;nbsp; &amp;nbsp; &amp;nbsp; &amp;nbsp; &amp;nbsp; &amp;nbsp; queue.append(node.left)&lt;br&gt;&amp;nbsp; &amp;nbsp; &amp;nbsp; &amp;nbsp; if node.right:&lt;br&gt;&amp;nbsp; &amp;nbsp; &amp;nbsp; &amp;nbsp; &amp;nbsp; &amp;nbsp; queue.append(node.right)&lt;br&gt;&amp;nbsp; &amp;nbsp;&amp;nbsp;&lt;br&gt;&lt;br&gt;&amp;nbsp; &amp;nbsp; return output&lt;br&gt;&lt;/font&gt;" style="text;html=1;align=left;verticalAlign=middle;resizable=0;points=[];autosize=1;" vertex="1" parent="1">
                    <mxGeometry x="-410" y="30" width="220" height="280" as="geometry"/>
                </mxCell>
            </root>
        </mxGraphModel>
    </diagram>
</mxfile>